<svg xmlns="http://www.w3.org/2000/svg" xmlns:xlink="http://www.w3.org/1999/xlink" viewBox="0,0,256,256" width="100px" height="100px" fill-rule="evenodd"><g fill="none" fill-rule="evenodd" stroke="none" stroke-width="1" stroke-linecap="butt" stroke-linejoin="miter" stroke-miterlimit="10" stroke-dasharray="" stroke-dashoffset="0" font-family="none" font-weight="none" font-size="none" text-anchor="none" style="mix-blend-mode: normal"><g transform="scale(2.56,2.56)"><path d="M63.958,72.039l-34.951,-5.037v-32l42,-6v25v6.997c0,4.93 -2.796,9.193 -7.049,11.04z" fill="#2aa132"></path><path d="M0.014,75.001l-0.001,-3.999l59,-0.003c5.52,0 10.001,-4.481 10.001,-10.001v-8.997h-21.998l0.003,15.576l9.883,1.424l-28.029,0.001l-0.144,-0.021c-0.984,-0.141 -1.715,-0.985 -1.715,-1.98v-32c0,-0.995 0.732,-1.839 1.716,-1.979l42,-6c1.204,-0.172 2.284,0.763 2.284,1.979v31.997c0,7.729 -6.272,14.001 -14,14.001zM67.579,74.515c1.547,-0.983 2.912,-2.223 4.039,-3.661c1.468,0.096 2.933,0.148 4.396,0.148h24v4h-24c-2.83,-0.001 -5.647,-0.185 -8.435,-0.487zM45.018,67.289l-0.003,-15.288h-12.001v-2h12.001l-0.001,-13.244l2,-0.285l0.003,13.529h21.997v-18.693l-38,5.428v28.533z" fill="#ffffff"></path></g></g></svg>